<mxfile host="app.diagrams.net" agent="Mozilla/5.0 (Windows NT 10.0; Win64; x64) AppleWebKit/537.36 (KHTML, like Gecko) Chrome/134.0.0.0 Safari/537.36" version="26.2.2">
  <diagram name="Página-1" id="nRnScKpOEZmVmXz66blN">
    <mxGraphModel dx="1108" dy="605" grid="1" gridSize="10" guides="1" tooltips="1" connect="1" arrows="1" fold="1" page="1" pageScale="1" pageWidth="827" pageHeight="1169" math="0" shadow="0">
      <root>
        <mxCell id="0" />
        <mxCell id="1" parent="0" />
        <mxCell id="W5a_YH90ra-wDbiFmjBi-3" value="Criança" style="swimlane;fontStyle=0;childLayout=stackLayout;horizontal=1;startSize=30;horizontalStack=0;resizeParent=1;resizeParentMax=0;resizeLast=0;collapsible=1;marginBottom=0;whiteSpace=wrap;html=1;" parent="1" vertex="1">
          <mxGeometry x="100" y="130" width="140" height="150" as="geometry" />
        </mxCell>
        <mxCell id="W5a_YH90ra-wDbiFmjBi-4" value="Nome&lt;div&gt;Nome Responsável&lt;/div&gt;&lt;div&gt;PK&amp;nbsp; &amp;nbsp; &amp;nbsp; CPF/RG&lt;/div&gt;&lt;div&gt;FK&amp;nbsp; &amp;nbsp; &amp;nbsp;CPF Responsável&lt;/div&gt;&lt;div&gt;Data de nascimento&lt;/div&gt;&lt;div&gt;Gênero&lt;br&gt;Deficiencias&lt;/div&gt;" style="text;strokeColor=none;fillColor=none;align=left;verticalAlign=middle;spacingLeft=4;spacingRight=4;overflow=hidden;points=[[0,0.5],[1,0.5]];portConstraint=eastwest;rotatable=0;whiteSpace=wrap;html=1;" parent="W5a_YH90ra-wDbiFmjBi-3" vertex="1">
          <mxGeometry y="30" width="140" height="120" as="geometry" />
        </mxCell>
        <mxCell id="W5a_YH90ra-wDbiFmjBi-7" value="Responsavel" style="swimlane;fontStyle=0;childLayout=stackLayout;horizontal=1;startSize=30;horizontalStack=0;resizeParent=1;resizeParentMax=0;resizeLast=0;collapsible=1;marginBottom=0;whiteSpace=wrap;html=1;" parent="1" vertex="1">
          <mxGeometry x="344" y="30" width="140" height="230" as="geometry" />
        </mxCell>
        <mxCell id="W5a_YH90ra-wDbiFmjBi-9" value="Nome&lt;br&gt;&amp;nbsp;PK&amp;nbsp; &amp;nbsp;CPF&lt;div&gt;&lt;div&gt;Email&lt;/div&gt;&lt;div&gt;Data de Nascimento&lt;br&gt;Gênero&lt;br&gt;Grau de Parentesco&lt;/div&gt;&lt;div&gt;Telefone&lt;br&gt;Quantidade de crianças&lt;/div&gt;&lt;div&gt;Valor Renda&lt;/div&gt;&lt;div&gt;Senha&lt;/div&gt;&lt;/div&gt;" style="text;strokeColor=none;fillColor=none;align=left;verticalAlign=middle;spacingLeft=4;spacingRight=4;overflow=hidden;points=[[0,0.5],[1,0.5]];portConstraint=eastwest;rotatable=0;whiteSpace=wrap;html=1;" parent="W5a_YH90ra-wDbiFmjBi-7" vertex="1">
          <mxGeometry y="30" width="140" height="200" as="geometry" />
        </mxCell>
        <mxCell id="W5a_YH90ra-wDbiFmjBi-11" value="Creches" style="swimlane;fontStyle=0;childLayout=stackLayout;horizontal=1;startSize=30;horizontalStack=0;resizeParent=1;resizeParentMax=0;resizeLast=0;collapsible=1;marginBottom=0;whiteSpace=wrap;html=1;" parent="1" vertex="1">
          <mxGeometry x="344" y="350" width="140" height="180" as="geometry" />
        </mxCell>
        <mxCell id="W5a_YH90ra-wDbiFmjBi-12" value="CEP&lt;div&gt;Endereço&lt;/div&gt;&lt;div&gt;Nome Creche&lt;/div&gt;&lt;div&gt;Complemento&lt;br&gt;Número&lt;/div&gt;&lt;div&gt;Quantidade Vagas&lt;br&gt;Nome Autor&lt;/div&gt;&lt;div&gt;Email&lt;/div&gt;&lt;div&gt;Telefone&lt;br&gt;Foto unidade&lt;/div&gt;" style="text;strokeColor=none;fillColor=none;align=left;verticalAlign=middle;spacingLeft=4;spacingRight=4;overflow=hidden;points=[[0,0.5],[1,0.5]];portConstraint=eastwest;rotatable=0;whiteSpace=wrap;html=1;" parent="W5a_YH90ra-wDbiFmjBi-11" vertex="1">
          <mxGeometry y="30" width="140" height="150" as="geometry" />
        </mxCell>
        <mxCell id="W5a_YH90ra-wDbiFmjBi-15" value="Endereço" style="swimlane;fontStyle=0;childLayout=stackLayout;horizontal=1;startSize=30;horizontalStack=0;resizeParent=1;resizeParentMax=0;resizeLast=0;collapsible=1;marginBottom=0;whiteSpace=wrap;html=1;" parent="1" vertex="1">
          <mxGeometry x="570" y="130" width="140" height="150" as="geometry" />
        </mxCell>
        <mxCell id="W5a_YH90ra-wDbiFmjBi-16" value="CEP&lt;br&gt;Endereço&lt;br&gt;Número&lt;br&gt;Cidade&lt;br&gt;Estado&lt;div&gt;FK&amp;nbsp; &amp;nbsp; &amp;nbsp;CPF(responsável)&lt;/div&gt;" style="text;strokeColor=none;fillColor=none;align=left;verticalAlign=middle;spacingLeft=4;spacingRight=4;overflow=hidden;points=[[0,0.5],[1,0.5]];portConstraint=eastwest;rotatable=0;whiteSpace=wrap;html=1;" parent="W5a_YH90ra-wDbiFmjBi-15" vertex="1">
          <mxGeometry y="30" width="140" height="120" as="geometry" />
        </mxCell>
        <mxCell id="W5a_YH90ra-wDbiFmjBi-19" value="" style="edgeStyle=entityRelationEdgeStyle;fontSize=12;html=1;endArrow=ERoneToMany;rounded=0;entryX=1;entryY=0.5;entryDx=0;entryDy=0;exitX=0.036;exitY=0.245;exitDx=0;exitDy=0;exitPerimeter=0;" parent="1" source="W5a_YH90ra-wDbiFmjBi-9" target="W5a_YH90ra-wDbiFmjBi-4" edge="1">
          <mxGeometry width="100" height="100" relative="1" as="geometry">
            <mxPoint x="200" y="350" as="sourcePoint" />
            <mxPoint x="300" y="250" as="targetPoint" />
          </mxGeometry>
        </mxCell>
        <mxCell id="W5a_YH90ra-wDbiFmjBi-21" value="" style="edgeStyle=entityRelationEdgeStyle;fontSize=12;html=1;endArrow=ERmandOne;startArrow=ERmandOne;rounded=0;entryX=0;entryY=0.808;entryDx=0;entryDy=0;entryPerimeter=0;exitX=1.007;exitY=0.25;exitDx=0;exitDy=0;exitPerimeter=0;" parent="1" source="W5a_YH90ra-wDbiFmjBi-9" target="W5a_YH90ra-wDbiFmjBi-16" edge="1">
          <mxGeometry width="100" height="100" relative="1" as="geometry">
            <mxPoint x="360" y="420" as="sourcePoint" />
            <mxPoint x="460" y="320" as="targetPoint" />
            <Array as="points">
              <mxPoint x="400" y="110" />
            </Array>
          </mxGeometry>
        </mxCell>
      </root>
    </mxGraphModel>
  </diagram>
</mxfile>
